#!OML:ASF E:\emotionWalksFemale\Project 1\Capture day 1\Session 1\Female1.ASF
:FULLY-SPECIFIED
:DEGREES
16
root 9.96529 15.5317 19.7791 181.046 -0.831226 -178.23
lowerback 11.0667 1.44265 2.3317
upperback -3.62141 2.26382 -0.0659672
thorax -10.028 0.930893 -1.82445
lowerneck -7.1685 -2.81403 -6.95896
upperneck 13.7746 -4.39264 7.29068
head 5.63303 -2.1653 3.1138
rclavicle 1.12748e-014 2.38542e-015
rhumerus -39.9868 12.5565 -87.894
rradius 38.372
rwrist 18.1147
rhand -4.15006 -54.3495
rfingers 7.12502
rthumb 21.6099 -83.1637
lclavicle 1.12748e-014 2.38542e-015
lhumerus -42.5566 0.880198 77.7614
lradius 36.026
lwrist -11.9492
lhand 2.72551 -30.7287
lfingers 7.12502
lthumb 28.1982 -2.82991
rfemur -2.13012 13.7232 24.479
rtibia 15.7817
rfoot -15.1284 -29.8143
rtoes -8.82695
lfemur -10.5151 -19.5993 -18.5396
ltibia 25.4872
lfoot -15.8208 22.4727
ltoes -53.7657
17
root 9.96805 15.5305 19.7829 181.129 -0.878846 -178.252
lowerback 11.2219 1.45573 2.23436
upperback -3.63271 2.27562 -0.0207096
thorax -10.137 0.942126 -1.72911
lowerneck -6.97823 -2.83088 -7.07378
upperneck 13.4775 -4.3871 7.32547
head 5.51093 -2.16509 3.14604
rclavicle -2.48791e-014 -3.27995e-015
rhumerus -40.0193 12.747 -87.5702
rradius 38.4426
rwrist 18.223
rhand -1.95639 -54.9235
rfingers 7.12502
rthumb 23.7152 -83.4804
lclavicle -2.48791e-014 -3.27995e-015
lhumerus -42.9249 1.00958 77.2773
lradius 36.1092
lwrist -11.8919
lhand 3.64216 -30.4347
lfingers 7.12502
lthumb 29.074 -2.68366
rfemur -2.29178 13.545 24.4325
rtibia 15.886
rfoot -15.2894 -29.8756
rtoes -8.65106
lfemur -10.7533 -19.3715 -18.5075
ltibia 25.6868
lfoot -15.8614 22.252
ltoes -53.9617
18
root 9.97111 15.5266 19.7887 181.272 -0.947973 -178.298
lowerback 11.2813 1.4679 2.14963
upperback -3.62739 2.28144 -0.0156778
thorax -10.1693 0.950095 -1.6792
lowerneck -6.79824 -2.87814 -7.20348
upperneck 13.2225 -4.42955 7.37908
head 5.40834 -2.18856 3.18309
rclavicle -1.95679e-015 5.06901e-015
rhumerus -39.914 12.9658 -87.2385
rradius 38.4964
rwrist 18.2547
rhand -4.96528 -53.8901
rfingers 7.12502
rthumb 20.8268 -82.7923
lclavicle -1.95679e-015 5.06901e-015
lhumerus -43.2064 1.31281 76.6156
lradius 36.1231
lwrist -12.1301
lhand 4.4417 -30.3888
lfingers 7.12502
lthumb 29.8373 -2.77219
rfemur -2.60432 13.3179 24.341
rtibia 16.132
rfoot -15.8435 -29.7916
rtoes -7.66998
lfemur -11.0628 -19.1785 -18.4643
ltibia 25.8322
lfoot -15.9087 22.0179
ltoes -54.1387
19
root 9.97246 15.5237 19.7938 181.447 -1.05086 -178.341
lowerback 11.2494 1.48229 2.16505
upperback -3.6016 2.29653 -0.0807837
thorax -10.1179 0.955553 -1.75917
lowerneck -6.63128 -2.96429 -7.22586
upperneck 12.9132 -4.53296 7.43678
head 5.29397 -2.23537 3.19905
rclavicle -1.37192e-014 -5.76476e-015
rhumerus -39.6943 12.978 -86.8865
rradius 38.477
rwrist 18.347
rhand -3.90818 -54.2776
rfingers 7.12502
rthumb 21.8421 -83.0649
lclavicle -1.37192e-014 -5.76476e-015
lhumerus -43.321 1.57554 75.8665
lradius 36.0953
lwrist -12.3289
lhand 5.47957 -30.2269
lfingers 7.12502
lthumb 30.8273 -2.79261
rfemur -3.01852 13.0529 24.2326
rtibia 16.5189
rfoot -16.3762 -29.6388
rtoes -7.30626
lfemur -11.3951 -19.0802 -18.41
ltibia 25.9669
lfoot -15.9018 21.8905
ltoes -54.2852
20
root 9.97505 15.5234 19.8019 181.612 -1.16015 -178.354
lowerback 11.3253 1.51296 2.21972
upperback -3.57738 2.34187 -0.154598
thorax -10.1287 0.971569 -1.88042
lowerneck -6.61764 -3.04519 -7.18443
upperneck 12.6356 -4.62455 7.49157
head 5.2136 -2.26921 3.20278
rclavicle -5.64207e-015 2.28602e-015
rhumerus -39.5008 13.0615 -86.6169
rradius 38.4036
rwrist 18.2962
rhand -2.62586 -54.8486
rfingers 7.12502
rthumb 23.073 -83.4872
lclavicle -5.64207e-015 2.28602e-015
lhumerus -43.3428 1.56123 75.2024
lradius 35.9505
lwrist -12.3722
lhand 6.36153 -30.3604
lfingers 7.12502
lthumb 31.6677 -3.08842
rfemur -3.45094 12.8421 24.1713
rtibia 16.9372
rfoot -16.4028 -29.6918
rtoes -8.55159
lfemur -11.7506 -18.9017 -18.3172
ltibia 26.1412
lfoot -15.9588 21.6625
ltoes -54.286
21
root 9.98092 15.5202 19.816 181.83 -1.23241 -178.32
lowerback 11.4887 1.53189 2.18511
upperback -3.57219 2.36972 -0.123445
thorax -10.2209 0.986587 -1.83892
lowerneck -6.89625 -3.10212 -7.25841
upperneck 12.635 -4.66326 7.49868
head 5.26629 -2.27977 3.21106
rclavicle -2.97665e-014 8.94531e-016
rhumerus -39.1968 13.5133 -86.3412
rradius 38.2231
rwrist 18.302
rhand -2.70585 -54.9214
rfingers 7.12502
rthumb 22.9962 -83.5696
lclavicle -2.97665e-014 8.94531e-016
lhumerus -43.316 1.68834 74.5976
lradius 35.8102
lwrist -12.1912
lhand 7.54814 -30.2741
lfingers 7.12502
lthumb 32.7973 -3.23134
rfemur -3.95144 12.543 24.1559
rtibia 17.307
rfoot -16.4245 -29.7129
rtoes -8.48573
lfemur -12.2269 -18.5698 -18.1265
ltibia 26.3522
lfoot -16.0728 21.2711
ltoes -54.3943
22
root 9.98507 15.5156 19.8261 182.018 -1.30178 -178.292
lowerback 11.6129 1.51447 2.15384
upperback -3.54051 2.35028 -0.0681101
thorax -10.2636 0.980901 -1.76186
lowerneck -7.21604 -3.1405 -7.31924
upperneck 12.6547 -4.66319 7.42591
head 5.32737 -2.27412 3.19428
rclavicle 3.23685e-015 2.08724e-015
rhumerus -38.7595 13.9551 -85.957
rradius 38.0202
rwrist 18.3623
rhand -2.74703 -54.7427
rfingers 7.12502
rthumb 22.9567 -83.3959
lclavicle 3.23685e-015 2.08724e-015
lhumerus -43.3841 1.86176 74.0198
lradius 35.7983
lwrist -11.8552
lhand 8.4799 -30.293
lfingers 7.12502
lthumb 33.6832 -3.43945
rfemur -4.37037 12.2232 24.1394
rtibia 17.6471
rfoot -16.8466 -29.6761
rtoes -6.30974
lfemur -12.649 -18.2493 -17.9781
ltibia 26.5892
lfoot -16.2497 20.936
ltoes -54.6719
23
root 9.98635 15.5128 19.8293 182.139 -1.41142 -178.321
lowerback 11.7037 1.51701 2.15743
upperback -3.51915 2.35381 -0.103165
thorax -10.2918 0.980985 -1.80526
lowerneck -7.1382 -3.17208 -7.2018
upperneck 12.404 -4.69394 7.38464
head 5.2356 -2.28377 3.16036
rclavicle -3.25796e-015 -4.96962e-016
rhumerus -38.4926 14.1812 -85.5936
rradius 37.9629
rwrist 18.3175
rhand -2.28979 -54.6066
rfingers 7.12502
rthumb 23.3954 -83.2045
lclavicle -3.25796e-015 -4.96962e-016
lhumerus -43.6335 1.70613 73.4289
lradius 35.8699
lwrist -11.5807
lhand 8.78346 -30.3317
lfingers 7.12502
lthumb 33.9716 -3.54163
rfemur -4.6597 11.8856 24.0936
rtibia 17.9908
rfoot -17.1328 -30.0662
rtoes -4.84726
lfemur -12.9401 -17.9262 -17.9717
ltibia 26.8374
lfoot -16.2206 20.754
ltoes -55.0543
24
root 9.98809 15.5104 19.8329 182.231 -1.46668 -178.337
lowerback 11.8125 1.56016 2.14051
upperback -3.50138 2.40891 -0.139573
thorax -10.3329 1.00673 -1.84977
lowerneck -6.76282 -3.23616 -7.23566
upperneck 11.973 -4.79647 7.5824
head 5.05195 -2.32994 3.22545
rclavicle -2.54887e-015 -5.76476e-015
rhumerus -38.3936 14.3121 -85.3089
rradius 37.9643
rwrist 18.3583
rhand -1.97481 -54.8221
rfingers 7.12502
rthumb 23.6976 -83.3812
lclavicle -2.54887e-015 -5.76476e-015
lhumerus -43.907 1.46471 72.8164
lradius 35.97
lwrist -11.3548
lhand 8.81863 -30.2178
lfingers 7.12502
lthumb 34.005 -3.43517
rfemur -4.92417 11.4938 24.0746
rtibia 18.3229
rfoot -17.2069 -30.7281
rtoes -3.33603
lfemur -13.1851 -17.6043 -17.9613
ltibia 27.0666
lfoot -16.1674 20.5188
ltoes -55.1087
